<mxfile host="app.diagrams.net" modified="2024-06-15T00:08:09.253Z" agent="Mozilla/5.0 (Windows NT 10.0; Win64; x64) AppleWebKit/537.36 (KHTML, like Gecko) Chrome/120.0.0.0 Safari/537.36" etag="DusHgMrFt_cdgAP2nk2U" version="24.5.4" type="device">
  <diagram name="Página-1" id="vjC1adTiTMulnfmGKpRd">
    <mxGraphModel dx="1834" dy="1590" grid="0" gridSize="10" guides="1" tooltips="1" connect="1" arrows="1" fold="1" page="0" pageScale="1" pageWidth="827" pageHeight="1169" math="0" shadow="0">
      <root>
        <mxCell id="0" />
        <mxCell id="1" parent="0" />
        <mxCell id="STybgOZ6_wo6ui0jpVrt-2" value="Lavagem de Carro" style="shape=umlFrame;whiteSpace=wrap;html=1;pointerEvents=0;recursiveResize=0;container=1;collapsible=0;width=160;" parent="1" vertex="1">
          <mxGeometry x="-70" y="-780" width="550" height="803" as="geometry" />
        </mxCell>
        <mxCell id="STybgOZ6_wo6ui0jpVrt-3" value="CRUD Funcionário" style="ellipse;whiteSpace=wrap;html=1;" parent="STybgOZ6_wo6ui0jpVrt-2" vertex="1">
          <mxGeometry x="70" y="50" width="140" height="70" as="geometry" />
        </mxCell>
        <mxCell id="STybgOZ6_wo6ui0jpVrt-4" value="Agendar Lavagem" style="ellipse;whiteSpace=wrap;html=1;" parent="STybgOZ6_wo6ui0jpVrt-2" vertex="1">
          <mxGeometry x="70" y="130" width="140" height="70" as="geometry" />
        </mxCell>
        <mxCell id="STybgOZ6_wo6ui0jpVrt-5" value="Editar/Excluir/Exibir&lt;div&gt;Cliente&lt;/div&gt;" style="ellipse;whiteSpace=wrap;html=1;" parent="STybgOZ6_wo6ui0jpVrt-2" vertex="1">
          <mxGeometry x="70" y="210" width="140" height="70" as="geometry" />
        </mxCell>
        <mxCell id="STybgOZ6_wo6ui0jpVrt-6" value="Check-in" style="ellipse;whiteSpace=wrap;html=1;" parent="STybgOZ6_wo6ui0jpVrt-2" vertex="1">
          <mxGeometry x="70" y="380" width="140" height="70" as="geometry" />
        </mxCell>
        <mxCell id="STybgOZ6_wo6ui0jpVrt-7" value="Check-out(Entrega do carro ao Cliente)" style="ellipse;whiteSpace=wrap;html=1;" parent="STybgOZ6_wo6ui0jpVrt-2" vertex="1">
          <mxGeometry x="70" y="460" width="140" height="70" as="geometry" />
        </mxCell>
        <mxCell id="STybgOZ6_wo6ui0jpVrt-8" value="Relatório de histórico de Lavagem" style="ellipse;whiteSpace=wrap;html=1;" parent="STybgOZ6_wo6ui0jpVrt-2" vertex="1">
          <mxGeometry x="166" y="540" width="140" height="70" as="geometry" />
        </mxCell>
        <mxCell id="STybgOZ6_wo6ui0jpVrt-9" value="Relatórios em gráficos" style="ellipse;whiteSpace=wrap;html=1;" parent="STybgOZ6_wo6ui0jpVrt-2" vertex="1">
          <mxGeometry x="70" y="630" width="140" height="70" as="geometry" />
        </mxCell>
        <mxCell id="STybgOZ6_wo6ui0jpVrt-10" value="Cadastrar Cliente" style="ellipse;whiteSpace=wrap;html=1;" parent="STybgOZ6_wo6ui0jpVrt-2" vertex="1">
          <mxGeometry x="290" y="100" width="140" height="70" as="geometry" />
        </mxCell>
        <mxCell id="STybgOZ6_wo6ui0jpVrt-11" value="Cadastrar Carro" style="ellipse;whiteSpace=wrap;html=1;" parent="STybgOZ6_wo6ui0jpVrt-2" vertex="1">
          <mxGeometry x="290" y="180" width="140" height="70" as="geometry" />
        </mxCell>
        <mxCell id="STybgOZ6_wo6ui0jpVrt-12" value="Editar/Excluir/Exibir&lt;div&gt;Carro&lt;/div&gt;" style="ellipse;whiteSpace=wrap;html=1;" parent="STybgOZ6_wo6ui0jpVrt-2" vertex="1">
          <mxGeometry x="70" y="290" width="140" height="70" as="geometry" />
        </mxCell>
        <mxCell id="STybgOZ6_wo6ui0jpVrt-13" value="&amp;lt;&amp;lt;extend&amp;gt;&amp;gt;" style="html=1;verticalAlign=bottom;labelBackgroundColor=none;endArrow=open;endFill=0;dashed=1;rounded=0;fontSize=12;startSize=8;endSize=8;curved=1;entryX=1;entryY=0.5;entryDx=0;entryDy=0;exitX=0;exitY=0.5;exitDx=0;exitDy=0;" parent="STybgOZ6_wo6ui0jpVrt-2" source="STybgOZ6_wo6ui0jpVrt-10" target="STybgOZ6_wo6ui0jpVrt-4" edge="1">
          <mxGeometry width="160" relative="1" as="geometry">
            <mxPoint x="280" y="300" as="sourcePoint" />
            <mxPoint x="440" y="300" as="targetPoint" />
          </mxGeometry>
        </mxCell>
        <mxCell id="STybgOZ6_wo6ui0jpVrt-14" value="&amp;lt;&amp;lt;extend&amp;gt;&amp;gt;" style="html=1;verticalAlign=bottom;labelBackgroundColor=none;endArrow=open;endFill=0;dashed=1;rounded=0;fontSize=12;startSize=8;endSize=8;curved=1;entryX=1;entryY=1;entryDx=0;entryDy=0;exitX=0;exitY=0.5;exitDx=0;exitDy=0;" parent="STybgOZ6_wo6ui0jpVrt-2" source="STybgOZ6_wo6ui0jpVrt-11" target="STybgOZ6_wo6ui0jpVrt-4" edge="1">
          <mxGeometry width="160" relative="1" as="geometry">
            <mxPoint x="300" y="145" as="sourcePoint" />
            <mxPoint x="220" y="175" as="targetPoint" />
          </mxGeometry>
        </mxCell>
        <mxCell id="0RaXyyCh2EYzIQkPMjXp-1" value="Login" style="ellipse;whiteSpace=wrap;html=1;" parent="STybgOZ6_wo6ui0jpVrt-2" vertex="1">
          <mxGeometry x="70" y="716" width="140" height="70" as="geometry" />
        </mxCell>
        <mxCell id="0RaXyyCh2EYzIQkPMjXp-2" value="Alterar Senha" style="ellipse;whiteSpace=wrap;html=1;" parent="STybgOZ6_wo6ui0jpVrt-2" vertex="1">
          <mxGeometry x="276" y="714" width="140" height="70" as="geometry" />
        </mxCell>
        <mxCell id="0RaXyyCh2EYzIQkPMjXp-3" value="&amp;lt;&amp;lt;extend&amp;gt;&amp;gt;" style="html=1;verticalAlign=bottom;labelBackgroundColor=none;endArrow=open;endFill=0;dashed=1;rounded=0;fontSize=12;startSize=8;endSize=8;curved=1;entryX=1;entryY=0.5;entryDx=0;entryDy=0;exitX=0;exitY=0.5;exitDx=0;exitDy=0;" parent="STybgOZ6_wo6ui0jpVrt-2" source="0RaXyyCh2EYzIQkPMjXp-2" target="0RaXyyCh2EYzIQkPMjXp-1" edge="1">
          <mxGeometry width="160" relative="1" as="geometry">
            <mxPoint x="300" y="225" as="sourcePoint" />
            <mxPoint x="199" y="200" as="targetPoint" />
          </mxGeometry>
        </mxCell>
        <mxCell id="STybgOZ6_wo6ui0jpVrt-30" style="edgeStyle=orthogonalEdgeStyle;curved=1;rounded=0;orthogonalLoop=1;jettySize=auto;html=1;exitX=0.5;exitY=0.5;exitDx=0;exitDy=0;exitPerimeter=0;entryX=0;entryY=0.5;entryDx=0;entryDy=0;fontSize=12;startSize=8;endSize=8;endArrow=none;endFill=0;strokeWidth=2;" parent="1" source="STybgOZ6_wo6ui0jpVrt-15" target="STybgOZ6_wo6ui0jpVrt-4" edge="1">
          <mxGeometry relative="1" as="geometry" />
        </mxCell>
        <mxCell id="STybgOZ6_wo6ui0jpVrt-31" style="edgeStyle=orthogonalEdgeStyle;curved=1;rounded=0;orthogonalLoop=1;jettySize=auto;html=1;exitX=0.5;exitY=0.5;exitDx=0;exitDy=0;exitPerimeter=0;entryX=0;entryY=0.5;entryDx=0;entryDy=0;fontSize=12;startSize=8;endSize=8;strokeWidth=2;endArrow=none;endFill=0;" parent="1" source="STybgOZ6_wo6ui0jpVrt-15" target="STybgOZ6_wo6ui0jpVrt-5" edge="1">
          <mxGeometry relative="1" as="geometry" />
        </mxCell>
        <mxCell id="STybgOZ6_wo6ui0jpVrt-32" style="edgeStyle=orthogonalEdgeStyle;curved=1;rounded=0;orthogonalLoop=1;jettySize=auto;html=1;exitX=0.5;exitY=0.5;exitDx=0;exitDy=0;exitPerimeter=0;entryX=0;entryY=0.5;entryDx=0;entryDy=0;fontSize=12;startSize=8;endSize=8;endArrow=none;endFill=0;strokeWidth=2;" parent="1" source="STybgOZ6_wo6ui0jpVrt-15" target="STybgOZ6_wo6ui0jpVrt-12" edge="1">
          <mxGeometry relative="1" as="geometry" />
        </mxCell>
        <mxCell id="STybgOZ6_wo6ui0jpVrt-33" style="edgeStyle=orthogonalEdgeStyle;curved=1;rounded=0;orthogonalLoop=1;jettySize=auto;html=1;exitX=0.5;exitY=0.5;exitDx=0;exitDy=0;exitPerimeter=0;entryX=0;entryY=0.5;entryDx=0;entryDy=0;fontSize=12;startSize=8;endSize=8;strokeWidth=2;endArrow=none;endFill=0;" parent="1" source="STybgOZ6_wo6ui0jpVrt-15" target="STybgOZ6_wo6ui0jpVrt-6" edge="1">
          <mxGeometry relative="1" as="geometry">
            <Array as="points">
              <mxPoint x="-170" y="-645" />
              <mxPoint x="-170" y="-365" />
            </Array>
          </mxGeometry>
        </mxCell>
        <mxCell id="STybgOZ6_wo6ui0jpVrt-34" style="edgeStyle=orthogonalEdgeStyle;curved=1;rounded=0;orthogonalLoop=1;jettySize=auto;html=1;exitX=0.5;exitY=0.5;exitDx=0;exitDy=0;exitPerimeter=0;entryX=0;entryY=0.5;entryDx=0;entryDy=0;fontSize=12;startSize=8;endSize=8;endArrow=none;endFill=0;strokeWidth=2;" parent="1" source="STybgOZ6_wo6ui0jpVrt-15" target="STybgOZ6_wo6ui0jpVrt-7" edge="1">
          <mxGeometry relative="1" as="geometry">
            <Array as="points">
              <mxPoint x="-210" y="-645" />
              <mxPoint x="-210" y="-285" />
            </Array>
          </mxGeometry>
        </mxCell>
        <mxCell id="STybgOZ6_wo6ui0jpVrt-36" style="edgeStyle=orthogonalEdgeStyle;curved=1;rounded=0;orthogonalLoop=1;jettySize=auto;html=1;exitX=0.5;exitY=0.5;exitDx=0;exitDy=0;exitPerimeter=0;entryX=0;entryY=0.5;entryDx=0;entryDy=0;fontSize=12;startSize=8;endSize=8;strokeWidth=2;endArrow=none;endFill=0;" parent="1" source="STybgOZ6_wo6ui0jpVrt-15" target="STybgOZ6_wo6ui0jpVrt-9" edge="1">
          <mxGeometry relative="1" as="geometry">
            <Array as="points">
              <mxPoint x="-250" y="-645" />
              <mxPoint x="-250" y="-115" />
            </Array>
          </mxGeometry>
        </mxCell>
        <mxCell id="0RaXyyCh2EYzIQkPMjXp-4" style="edgeStyle=orthogonalEdgeStyle;rounded=0;orthogonalLoop=1;jettySize=auto;html=1;exitX=0.5;exitY=0.5;exitDx=0;exitDy=0;exitPerimeter=0;entryX=0;entryY=0.5;entryDx=0;entryDy=0;curved=1;strokeWidth=2;endArrow=none;endFill=0;" parent="1" source="STybgOZ6_wo6ui0jpVrt-15" target="0RaXyyCh2EYzIQkPMjXp-1" edge="1">
          <mxGeometry relative="1" as="geometry">
            <Array as="points">
              <mxPoint x="-260" y="-645" />
              <mxPoint x="-260" y="-29" />
            </Array>
          </mxGeometry>
        </mxCell>
        <mxCell id="STybgOZ6_wo6ui0jpVrt-15" value="Funcionário" style="shape=umlActor;verticalLabelPosition=bottom;verticalAlign=top;html=1;" parent="1" vertex="1">
          <mxGeometry x="-330" y="-675" width="30" height="60" as="geometry" />
        </mxCell>
        <mxCell id="XaXSHfGWOIrBJwl-vvSp-3" style="edgeStyle=orthogonalEdgeStyle;rounded=0;orthogonalLoop=1;jettySize=auto;html=1;exitX=0.5;exitY=0.5;exitDx=0;exitDy=0;exitPerimeter=0;entryX=0;entryY=0.5;entryDx=0;entryDy=0;curved=1;strokeWidth=2;strokeColor=#FF0000;endArrow=none;endFill=0;" edge="1" parent="1" source="XaXSHfGWOIrBJwl-vvSp-1" target="STybgOZ6_wo6ui0jpVrt-3">
          <mxGeometry relative="1" as="geometry">
            <Array as="points">
              <mxPoint x="-399" y="-528" />
              <mxPoint x="-399" y="-710" />
              <mxPoint x="-156" y="-710" />
              <mxPoint x="-156" y="-695" />
            </Array>
          </mxGeometry>
        </mxCell>
        <mxCell id="XaXSHfGWOIrBJwl-vvSp-1" value="&lt;font color=&quot;#ff0000&quot;&gt;Gerente&lt;/font&gt;" style="shape=umlActor;verticalLabelPosition=bottom;verticalAlign=top;html=1;strokeColor=#FF0000;" vertex="1" parent="1">
          <mxGeometry x="-341" y="-558" width="29" height="60" as="geometry" />
        </mxCell>
        <mxCell id="XaXSHfGWOIrBJwl-vvSp-2" style="edgeStyle=orthogonalEdgeStyle;curved=1;rounded=0;orthogonalLoop=1;jettySize=auto;html=1;exitX=0.5;exitY=0.5;exitDx=0;exitDy=0;exitPerimeter=0;entryX=0;entryY=0.5;entryDx=0;entryDy=0;fontSize=12;startSize=8;endSize=8;strokeWidth=2;endArrow=none;endFill=0;strokeColor=#FF0000;" edge="1" parent="1" source="XaXSHfGWOIrBJwl-vvSp-1" target="STybgOZ6_wo6ui0jpVrt-8">
          <mxGeometry relative="1" as="geometry">
            <Array as="points">
              <mxPoint x="-371" y="-528" />
              <mxPoint x="-371" y="-448" />
              <mxPoint x="-284" y="-448" />
              <mxPoint x="-284" y="-209" />
              <mxPoint x="96" y="-209" />
            </Array>
            <mxPoint x="-305" y="-635" as="sourcePoint" />
            <mxPoint x="10" y="-105" as="targetPoint" />
          </mxGeometry>
        </mxCell>
        <mxCell id="XaXSHfGWOIrBJwl-vvSp-4" style="edgeStyle=orthogonalEdgeStyle;rounded=0;orthogonalLoop=1;jettySize=auto;html=1;exitX=0.25;exitY=0.1;exitDx=0;exitDy=0;exitPerimeter=0;entryX=0.25;entryY=0.1;entryDx=0;entryDy=0;entryPerimeter=0;endArrow=block;endFill=0;" edge="1" parent="1" source="XaXSHfGWOIrBJwl-vvSp-1" target="STybgOZ6_wo6ui0jpVrt-15">
          <mxGeometry relative="1" as="geometry">
            <Array as="points">
              <mxPoint x="-334" y="-550" />
              <mxPoint x="-362" y="-550" />
              <mxPoint x="-362" y="-669" />
            </Array>
          </mxGeometry>
        </mxCell>
      </root>
    </mxGraphModel>
  </diagram>
</mxfile>
